<mxfile host="app.diagrams.net" modified="2024-12-15T21:29:50.104Z" agent="Mozilla/5.0 (Windows NT 10.0; Win64; x64) AppleWebKit/537.36 (KHTML, like Gecko) Chrome/131.0.0.0 Safari/537.36" etag="SeidL0wgvjzSTIds4xj9" version="24.5.2" type="google">
  <diagram name="Страница-1" id="vO82L34VgPR4Cy_R8VoT">
    <mxGraphModel grid="1" page="1" gridSize="10" guides="1" tooltips="1" connect="1" arrows="1" fold="1" pageScale="1" pageWidth="827" pageHeight="1169" math="0" shadow="0">
      <root>
        <mxCell id="0" />
        <mxCell id="1" parent="0" />
        <mxCell id="yvnb1PuiH-JpDgE4e_Om-3" style="edgeStyle=orthogonalEdgeStyle;rounded=0;orthogonalLoop=1;jettySize=auto;html=1;" edge="1" parent="1" source="yvnb1PuiH-JpDgE4e_Om-1" target="yvnb1PuiH-JpDgE4e_Om-2">
          <mxGeometry relative="1" as="geometry" />
        </mxCell>
        <mxCell id="yvnb1PuiH-JpDgE4e_Om-24" style="edgeStyle=orthogonalEdgeStyle;rounded=0;orthogonalLoop=1;jettySize=auto;html=1;" edge="1" parent="1" source="yvnb1PuiH-JpDgE4e_Om-1" target="yvnb1PuiH-JpDgE4e_Om-16">
          <mxGeometry relative="1" as="geometry">
            <Array as="points">
              <mxPoint x="550" y="270" />
              <mxPoint x="980" y="270" />
            </Array>
          </mxGeometry>
        </mxCell>
        <mxCell id="yvnb1PuiH-JpDgE4e_Om-26" style="edgeStyle=orthogonalEdgeStyle;rounded=0;orthogonalLoop=1;jettySize=auto;html=1;exitX=0.5;exitY=1;exitDx=0;exitDy=0;" edge="1" parent="1" source="yvnb1PuiH-JpDgE4e_Om-1" target="yvnb1PuiH-JpDgE4e_Om-25">
          <mxGeometry relative="1" as="geometry">
            <Array as="points">
              <mxPoint x="550" y="270" />
              <mxPoint x="1320" y="270" />
            </Array>
          </mxGeometry>
        </mxCell>
        <mxCell id="yvnb1PuiH-JpDgE4e_Om-31" style="edgeStyle=orthogonalEdgeStyle;rounded=0;orthogonalLoop=1;jettySize=auto;html=1;exitX=0.5;exitY=1;exitDx=0;exitDy=0;" edge="1" parent="1" source="yvnb1PuiH-JpDgE4e_Om-1" target="yvnb1PuiH-JpDgE4e_Om-30">
          <mxGeometry relative="1" as="geometry">
            <Array as="points">
              <mxPoint x="550" y="270" />
              <mxPoint x="1540" y="270" />
            </Array>
          </mxGeometry>
        </mxCell>
        <mxCell id="yvnb1PuiH-JpDgE4e_Om-36" style="edgeStyle=orthogonalEdgeStyle;rounded=0;orthogonalLoop=1;jettySize=auto;html=1;" edge="1" parent="1" source="yvnb1PuiH-JpDgE4e_Om-1" target="yvnb1PuiH-JpDgE4e_Om-33">
          <mxGeometry relative="1" as="geometry">
            <Array as="points">
              <mxPoint x="550" y="270" />
              <mxPoint x="750" y="270" />
            </Array>
          </mxGeometry>
        </mxCell>
        <mxCell id="yvnb1PuiH-JpDgE4e_Om-1" value="&lt;font style=&quot;font-size: 18px;&quot;&gt;catalog&lt;/font&gt;" style="ellipse;whiteSpace=wrap;html=1;" vertex="1" parent="1">
          <mxGeometry x="490" y="120" width="120" height="80" as="geometry" />
        </mxCell>
        <mxCell id="yvnb1PuiH-JpDgE4e_Om-14" style="edgeStyle=orthogonalEdgeStyle;rounded=0;orthogonalLoop=1;jettySize=auto;html=1;" edge="1" parent="1" source="yvnb1PuiH-JpDgE4e_Om-2" target="yvnb1PuiH-JpDgE4e_Om-4">
          <mxGeometry relative="1" as="geometry" />
        </mxCell>
        <mxCell id="yvnb1PuiH-JpDgE4e_Om-15" style="edgeStyle=orthogonalEdgeStyle;rounded=0;orthogonalLoop=1;jettySize=auto;html=1;" edge="1" parent="1" source="yvnb1PuiH-JpDgE4e_Om-2" target="yvnb1PuiH-JpDgE4e_Om-7">
          <mxGeometry relative="1" as="geometry" />
        </mxCell>
        <mxCell id="yvnb1PuiH-JpDgE4e_Om-2" value="&lt;font style=&quot;font-size: 18px;&quot;&gt;hut&lt;/font&gt;" style="ellipse;whiteSpace=wrap;html=1;" vertex="1" parent="1">
          <mxGeometry x="490" y="310" width="120" height="80" as="geometry" />
        </mxCell>
        <mxCell id="yvnb1PuiH-JpDgE4e_Om-9" style="edgeStyle=orthogonalEdgeStyle;rounded=0;orthogonalLoop=1;jettySize=auto;html=1;" edge="1" parent="1" source="yvnb1PuiH-JpDgE4e_Om-4" target="yvnb1PuiH-JpDgE4e_Om-6">
          <mxGeometry relative="1" as="geometry" />
        </mxCell>
        <mxCell id="yvnb1PuiH-JpDgE4e_Om-12" style="edgeStyle=orthogonalEdgeStyle;rounded=0;orthogonalLoop=1;jettySize=auto;html=1;exitX=0.5;exitY=1;exitDx=0;exitDy=0;" edge="1" parent="1" source="yvnb1PuiH-JpDgE4e_Om-4" target="yvnb1PuiH-JpDgE4e_Om-8">
          <mxGeometry relative="1" as="geometry" />
        </mxCell>
        <mxCell id="yvnb1PuiH-JpDgE4e_Om-13" style="edgeStyle=orthogonalEdgeStyle;rounded=0;orthogonalLoop=1;jettySize=auto;html=1;exitX=0.5;exitY=1;exitDx=0;exitDy=0;" edge="1" parent="1" source="yvnb1PuiH-JpDgE4e_Om-4" target="yvnb1PuiH-JpDgE4e_Om-5">
          <mxGeometry relative="1" as="geometry" />
        </mxCell>
        <mxCell id="yvnb1PuiH-JpDgE4e_Om-4" value="&lt;font style=&quot;font-size: 18px;&quot;&gt;location&lt;/font&gt;&lt;div&gt;&lt;font style=&quot;font-size: 18px;&quot;&gt;&lt;span style=&quot;font-size: 10px;&quot;&gt;attr:europ-route&lt;/span&gt;&lt;/font&gt;&lt;/div&gt;" style="ellipse;whiteSpace=wrap;html=1;" vertex="1" parent="1">
          <mxGeometry x="270" y="350" width="120" height="80" as="geometry" />
        </mxCell>
        <mxCell id="yvnb1PuiH-JpDgE4e_Om-5" value="&lt;font style=&quot;font-size: 18px;&quot;&gt;mountain&lt;/font&gt;" style="ellipse;whiteSpace=wrap;html=1;" vertex="1" parent="1">
          <mxGeometry x="130" y="520" width="120" height="80" as="geometry" />
        </mxCell>
        <mxCell id="yvnb1PuiH-JpDgE4e_Om-6" value="&lt;font style=&quot;font-size: 18px;&quot;&gt;coords&lt;/font&gt;" style="ellipse;whiteSpace=wrap;html=1;" vertex="1" parent="1">
          <mxGeometry x="270" y="520" width="120" height="80" as="geometry" />
        </mxCell>
        <mxCell id="yvnb1PuiH-JpDgE4e_Om-7" value="&lt;font style=&quot;font-size: 18px;&quot;&gt;description&lt;/font&gt;&lt;div&gt;&lt;span style=&quot;font-size: 18px;&quot;&gt;CDATA&lt;/span&gt;&lt;/div&gt;" style="ellipse;whiteSpace=wrap;html=1;" vertex="1" parent="1">
          <mxGeometry x="610" y="520" width="120" height="80" as="geometry" />
        </mxCell>
        <mxCell id="yvnb1PuiH-JpDgE4e_Om-8" value="&lt;font style=&quot;font-size: 18px;&quot;&gt;altitude&lt;/font&gt;" style="ellipse;whiteSpace=wrap;html=1;" vertex="1" parent="1">
          <mxGeometry x="410" y="520" width="120" height="80" as="geometry" />
        </mxCell>
        <mxCell id="yvnb1PuiH-JpDgE4e_Om-21" style="edgeStyle=orthogonalEdgeStyle;rounded=0;orthogonalLoop=1;jettySize=auto;html=1;exitX=0.5;exitY=1;exitDx=0;exitDy=0;" edge="1" parent="1" source="yvnb1PuiH-JpDgE4e_Om-16" target="yvnb1PuiH-JpDgE4e_Om-17">
          <mxGeometry relative="1" as="geometry" />
        </mxCell>
        <mxCell id="yvnb1PuiH-JpDgE4e_Om-22" style="edgeStyle=orthogonalEdgeStyle;rounded=0;orthogonalLoop=1;jettySize=auto;html=1;exitX=0.5;exitY=1;exitDx=0;exitDy=0;" edge="1" parent="1" source="yvnb1PuiH-JpDgE4e_Om-16" target="yvnb1PuiH-JpDgE4e_Om-19">
          <mxGeometry relative="1" as="geometry" />
        </mxCell>
        <mxCell id="yvnb1PuiH-JpDgE4e_Om-16" value="&lt;span style=&quot;font-size: 18px;&quot;&gt;contacts&lt;/span&gt;" style="ellipse;whiteSpace=wrap;html=1;" vertex="1" parent="1">
          <mxGeometry x="920" y="335" width="120" height="80" as="geometry" />
        </mxCell>
        <mxCell id="yvnb1PuiH-JpDgE4e_Om-17" value="&lt;span style=&quot;font-size: 18px;&quot;&gt;phone&lt;/span&gt;" style="ellipse;whiteSpace=wrap;html=1;" vertex="1" parent="1">
          <mxGeometry x="827" y="505" width="120" height="80" as="geometry" />
        </mxCell>
        <mxCell id="yvnb1PuiH-JpDgE4e_Om-19" value="&lt;span style=&quot;font-size: 18px;&quot;&gt;email&lt;/span&gt;" style="ellipse;whiteSpace=wrap;html=1;" vertex="1" parent="1">
          <mxGeometry x="1040" y="505" width="120" height="80" as="geometry" />
        </mxCell>
        <mxCell id="yvnb1PuiH-JpDgE4e_Om-29" value="" style="edgeStyle=orthogonalEdgeStyle;rounded=0;orthogonalLoop=1;jettySize=auto;html=1;" edge="1" parent="1" source="yvnb1PuiH-JpDgE4e_Om-25" target="yvnb1PuiH-JpDgE4e_Om-28">
          <mxGeometry relative="1" as="geometry" />
        </mxCell>
        <mxCell id="yvnb1PuiH-JpDgE4e_Om-25" value="&lt;span style=&quot;font-size: 18px;&quot;&gt;exit routes&lt;/span&gt;" style="ellipse;whiteSpace=wrap;html=1;" vertex="1" parent="1">
          <mxGeometry x="1260" y="335" width="120" height="80" as="geometry" />
        </mxCell>
        <mxCell id="yvnb1PuiH-JpDgE4e_Om-28" value="&lt;span style=&quot;font-size: 18px;&quot;&gt;exit route&lt;/span&gt;" style="ellipse;whiteSpace=wrap;html=1;" vertex="1" parent="1">
          <mxGeometry x="1260" y="495" width="120" height="80" as="geometry" />
        </mxCell>
        <mxCell id="yvnb1PuiH-JpDgE4e_Om-30" value="&lt;span style=&quot;font-size: 18px;&quot;&gt;nearby sites&lt;/span&gt;" style="ellipse;whiteSpace=wrap;html=1;" vertex="1" parent="1">
          <mxGeometry x="1480" y="335" width="120" height="80" as="geometry" />
        </mxCell>
        <mxCell id="yvnb1PuiH-JpDgE4e_Om-35" style="edgeStyle=orthogonalEdgeStyle;rounded=0;orthogonalLoop=1;jettySize=auto;html=1;" edge="1" parent="1" source="yvnb1PuiH-JpDgE4e_Om-33" target="yvnb1PuiH-JpDgE4e_Om-34">
          <mxGeometry relative="1" as="geometry" />
        </mxCell>
        <mxCell id="yvnb1PuiH-JpDgE4e_Om-33" value="&lt;font style=&quot;font-size: 18px;&quot;&gt;pictures&lt;/font&gt;" style="ellipse;whiteSpace=wrap;html=1;" vertex="1" parent="1">
          <mxGeometry x="690" y="640" width="120" height="80" as="geometry" />
        </mxCell>
        <mxCell id="yvnb1PuiH-JpDgE4e_Om-34" value="&lt;font style=&quot;font-size: 18px;&quot;&gt;picture&lt;/font&gt;" style="ellipse;whiteSpace=wrap;html=1;" vertex="1" parent="1">
          <mxGeometry x="690" y="770" width="120" height="80" as="geometry" />
        </mxCell>
      </root>
    </mxGraphModel>
  </diagram>
</mxfile>
